HIERARCHY
ROOT Hips
{
	OFFSET -0.179506 -22.333345 2.821913
	CHANNELS 6 Xposition Yposition Zposition Zrotation Yrotation Xrotation 
	JOINT LeftUpLeg
	{
		OFFSET 6.951974 -9.140623 -0.681533
		CHANNELS 3 Zrotation Yrotation Xrotation
		JOINT LeftLeg
		{
			OFFSET 3.427654 -37.519855 -0.449580
			CHANNELS 3 Zrotation Yrotation Xrotation
			JOINT LeftFoot
			{
				OFFSET -1.359570 -39.796059 -4.369333
				CHANNELS 3 Zrotation Yrotation Xrotation
				JOINT LeftToe
				{
					OFFSET 2.635814 -5.579078 11.928840
					CHANNELS 3 Zrotation Yrotation Xrotation
					End Site
					{
						OFFSET 0.000000 0.000000 0.000000
					}
				}
			}
		}
	}
	JOINT RightUpLeg
	{
		OFFSET -6.767048 -9.052170 -0.431982
		CHANNELS 3 Zrotation Yrotation Xrotation
		JOINT RightLeg
		{
			OFFSET -3.829005 -38.256897 -0.885003
			CHANNELS 3 Zrotation Yrotation Xrotation
			JOINT RightFoot
			{
				OFFSET 1.577377 -39.841461 -4.231180
				CHANNELS 3 Zrotation Yrotation Xrotation
				JOINT RightToe
				{
					OFFSET -2.537174 -4.814398 12.334795
					CHANNELS 3 Zrotation Yrotation Xrotation
					End Site
					{
						OFFSET 0.000000 0.000000 0.000000
					}
				}
			}
		}
	}
	JOINT Spine
	{
		OFFSET -0.253288 10.896323 -2.669631
		CHANNELS 3 Zrotation Yrotation Xrotation
		JOINT Spine1
		{
			OFFSET 0.548704 13.518043 0.109247
			CHANNELS 3 Zrotation Yrotation Xrotation
			JOINT Spine2
			{
				OFFSET 0.145701 5.292222 2.542457
				CHANNELS 3 Zrotation Yrotation Xrotation
				JOINT Neck
				{
					OFFSET -0.277840 21.387037 -4.285703
					CHANNELS 3 Zrotation Yrotation Xrotation
					JOINT Head
					{
						OFFSET 0.515184 6.496960 5.134897
						CHANNELS 3 Zrotation Yrotation Xrotation
						End Site
						{
							OFFSET 0.000000 0.000000 0.000000
						}
					}
				}
				JOINT LeftShoulder
				{
					OFFSET 7.884473 12.174932 -3.408961
					CHANNELS 3 Zrotation Yrotation Xrotation
					JOINT LeftArm
					{
						OFFSET 9.097692 3.046888 -0.886815
						CHANNELS 3 Zrotation Yrotation Xrotation
						JOINT LeftForeArm
						{
							OFFSET 25.961220 -1.277207 -2.745643
							CHANNELS 3 Zrotation Yrotation Xrotation
							JOINT LeftHand
							{
								OFFSET 24.923361 0.898606 -0.117091
								CHANNELS 3 Zrotation Yrotation Xrotation
								End Site
								{
									OFFSET 0.000000 0.000000 0.000000
								}
							}
						}
					}
				}
				JOINT RightShoulder
				{
					OFFSET -8.175920 11.883285 -3.861528
					CHANNELS 3 Zrotation Yrotation Xrotation
					JOINT RightArm
					{
						OFFSET -9.601238 3.255117 -0.914307
						CHANNELS 3 Zrotation Yrotation Xrotation
						JOINT RightForeArm
						{
							OFFSET -25.374195 -1.332924 -2.140099
							CHANNELS 3 Zrotation Yrotation Xrotation
							JOINT RightHand
							{
								OFFSET -25.529810 0.777228 -0.555919
								CHANNELS 3 Zrotation Yrotation Xrotation
								End Site
								{
									OFFSET 0.000000 0.000000 0.000000
								}
							}
						}
					}
				}
			}
		}
	}
}
MOTION
Frames: 13
Frame Time: 0.033333
-89.256279 44.277607 89.915001 139.445946 -1.458514 87.802220 13.532027 7.249005 -11.980875 -2.696040 16.853873 15.784645 -3.504131 2.597114 -8.979311 nan nan nan -13.141802 -6.781918 -3.763210 -0.866346 -13.822843 24.854617 -0.391916 2.263722 -26.547856 nan nan nan 0.718552 2.688361 5.769345 -2.331067 0.661209 10.182106 -0.741959 2.556476 -3.382417 1.474521 19.010380 16.822685 -6.428396 21.935427 21.575715 -18.346785 -4.722200 3.567786 -61.368532 -12.702564 -2.766919 132.190071 -48.560108 -94.276262 1.563269 -17.172918 -17.553313 11.509693 20.112488 0.322637 73.769100 34.838909 29.053410 -161.228692 66.100665 -134.280661 -3.875851 12.891688 -29.015768 
-89.311859 44.285477 89.936348 139.257815 -1.501862 87.848906 13.531069 7.256629 -11.881473 -2.809344 17.045784 15.611078 -3.426415 2.567061 -8.926626 nan nan nan -13.222116 -6.741259 -3.781147 -0.920316 -14.015716 24.838046 -0.374222 2.330462 -27.016698 nan nan nan 0.645028 2.750895 5.563336 -2.292837 0.743195 10.372153 -0.709083 2.633843 -3.484045 1.580668 18.883497 17.053780 -6.559996 21.885124 21.614930 -18.502242 -4.840548 3.567414 -61.087449 -12.715540 -2.647633 132.148382 -48.445915 -94.226128 1.887419 -17.035847 -17.443321 11.514055 20.161571 0.537780 73.802832 34.992906 29.043059 -161.254586 66.019919 -134.413491 -4.091342 12.703710 -29.805269 
-89.359062 44.289055 89.964287 139.064350 -1.590823 87.936605 13.476285 7.290836 -11.807517 -2.942394 17.162161 15.429896 -3.263638 2.546405 -8.904095 nan nan nan -13.341721 -6.776004 -3.862770 -0.944024 -14.108923 24.866038 -0.347049 2.406299 -27.360503 nan nan nan 0.504583 2.851986 5.431578 -2.277262 0.856756 10.380164 -0.637429 2.654548 -3.554368 1.578574 18.764280 17.252136 -6.639244 21.923559 21.553522 -18.564126 -4.858600 3.518337 -60.902292 -12.643108 -2.511529 132.251710 -48.427183 -94.460890 2.132121 -16.856969 -17.484158 11.519607 20.218125 0.696078 73.983721 35.013502 29.179742 -161.179375 65.932426 -134.375292 -3.988069 12.387876 -29.532348 
-89.409523 44.289761 89.958145 138.863131 -1.674114 88.012689 13.402908 7.395646 -11.789001 -2.984043 17.302053 15.358947 -3.135316 2.514144 -8.937074 nan nan nan -13.476302 -6.846849 -3.990882 -0.977779 -14.151247 24.923159 -0.402377 2.356871 -27.642266 nan nan nan 0.418893 2.998173 5.305267 -2.293674 0.980473 10.412196 -0.644593 2.728189 -3.589270 1.650652 18.660501 17.295685 -6.589386 21.868883 21.621517 -18.460987 -4.987604 3.613504 -60.857769 -12.736691 -2.422344 132.324033 -48.397888 -94.633866 2.330935 -16.851929 -17.581253 11.542905 20.249734 0.748546 74.161762 34.958264 29.236828 -161.112282 65.793426 -134.358125 -3.536765 12.530061 -29.609512 
-89.482666 44.294769 89.950890 138.654459 -1.812424 88.112491 13.234266 7.473819 -11.816655 -2.991548 17.449880 15.308819 -2.930892 2.570147 -9.008804 nan nan nan -13.656845 -6.852970 -4.237085 -1.158628 -14.287502 25.064778 -0.491999 1.870740 -28.066256 nan nan nan 0.457467 3.023868 5.295390 -2.412092 1.163607 10.283024 -0.695435 2.624520 -3.565535 1.426566 18.657422 17.111843 -6.538234 22.049627 21.813013 -18.484692 -4.827026 3.506128 -60.669670 -12.751493 -2.464411 132.416616 -48.446418 -94.850114 2.420164 -16.930573 -17.651700 11.513950 20.398501 0.830470 74.478815 35.009857 29.569022 -160.877400 65.721360 -134.210623 -3.049025 12.942746 -29.386083 
-89.536087 44.334084 89.975555 138.541097 -1.932763 88.134246 13.042001 7.520300 -11.751138 -3.050298 17.359945 15.203648 -2.691906 2.804721 -9.098615 nan nan nan -13.817663 -6.889431 -4.359605 -1.390755 -14.480610 25.162042 -0.791788 0.794155 -28.587251 nan nan nan 0.826629 2.767434 5.590176 -2.667423 1.386375 9.928802 -0.685079 1.859987 -3.562875 0.237249 19.079199 16.697126 -6.271587 22.768090 22.038312 -18.996915 -3.929451 2.494683 -59.980443 -11.879591 -2.869679 132.866528 -48.803519 -95.764856 2.523913 -16.978126 -17.857783 11.264464 21.322063 1.238254 75.062161 35.280559 30.358443 -159.940049 65.802719 -133.648776 -3.151472 13.088017 -28.098938 
-89.581757 44.355671 89.964493 138.458450 -2.023842 88.174164 12.916009 7.437370 -11.762184 -3.058459 17.488710 15.194287 -2.604634 2.974435 -9.219774 nan nan nan -13.982846 -6.905693 -4.533244 -1.777889 -15.024523 25.497568 -1.007577 0.088108 -28.988664 nan nan nan 0.842949 2.801184 5.507675 -2.717890 1.485438 9.947555 -0.743650 1.845957 -3.662818 0.289589 19.068576 16.794055 -6.177335 22.794805 22.196057 -19.086571 -3.967186 2.417466 -59.901139 -11.839963 -2.821249 132.932815 -48.790662 -95.913972 2.478879 -16.993127 -18.063148 11.277157 21.542577 1.275229 75.290621 35.144748 30.534557 -159.651544 65.671235 -133.221035 -2.892934 13.071854 -28.071034 
-89.615952 44.362568 89.946327 138.345470 -2.099536 88.141468 12.855319 7.386127 -11.718037 -3.062690 17.603930 15.256243 -2.592830 3.070451 -9.343382 nan nan nan -14.164277 -6.980483 -4.614458 -2.126132 -15.504416 25.893555 -1.072433 -0.243248 -29.054888 nan nan nan 0.871975 2.823483 5.566228 -2.789882 1.549313 9.895603 -0.817056 1.932951 -3.718065 0.392522 19.071052 16.804896 -6.163873 22.770759 22.307117 -19.045729 -4.006474 2.435862 -59.953886 -11.880438 -2.802671 133.022796 -48.761008 -95.957931 2.343674 -17.022991 -18.445906 11.263225 21.694448 1.271334 75.466858 35.122080 30.647496 -159.531194 65.566602 -132.989231 -2.686720 13.053342 -28.306075 
-89.646690 44.375748 89.932785 138.263182 -2.109427 88.039257 12.853656 7.412529 -11.643155 -3.028389 17.623325 15.398788 -2.637958 3.083377 -9.456137 nan nan nan -14.289947 -7.122256 -4.577159 -2.415464 -15.948909 26.208110 -1.174452 -0.269604 -28.941360 nan nan nan 1.020165 2.806754 5.745066 -2.896571 1.576928 9.778465 -0.892839 2.020999 -3.724472 0.420362 19.168168 16.803328 -6.171693 22.695841 22.308386 -19.024083 -3.981711 2.424416 -60.032447 -11.890463 -2.860207 133.173560 -48.844173 -95.968798 2.449259 -17.055901 -18.662505 11.302920 21.855882 1.332658 75.452899 35.229166 30.625474 -159.805715 65.523664 -133.122074 -3.240317 12.948718 -28.379174 
-89.650978 44.406372 89.910370 138.245403 -2.111566 87.783066 12.913381 7.486910 -11.431198 -3.064344 17.554838 15.586084 -2.642911 3.044849 -9.570837 nan nan nan -14.457114 -7.414503 -4.217887 -2.473358 -16.137533 26.216647 -1.341674 -0.060764 -28.630015 nan nan nan 1.383560 2.714155 6.127190 -3.046327 1.590703 9.739799 -0.916913 1.681594 -3.662793 -0.180025 19.732388 16.324848 -6.045994 22.821117 22.511186 -19.247408 -3.535185 1.783595 -59.824065 -11.484865 -3.102246 133.550403 -49.138234 -96.457663 2.714850 -17.073319 -18.967872 11.018440 22.285104 1.395703 75.804237 35.633670 30.991228 -159.935085 65.630207 -133.355319 -4.336029 12.674694 -28.100439 
-89.658470 44.433464 89.879425 138.239330 -2.160463 87.612976 12.949534 7.473050 -11.344782 -3.115689 17.657764 15.824871 -2.641728 3.020800 -9.685117 nan nan nan -14.680675 -7.635864 -3.935199 -2.383985 -16.211333 26.098968 -1.368451 0.338982 -28.037516 nan nan nan 1.454785 2.782885 6.240439 -3.106045 1.579195 9.861396 -0.934836 1.696455 -3.752211 -0.161976 19.855146 16.303081 -5.951531 22.801006 22.696299 -19.300205 -3.545326 1.699218 -59.866887 -11.450141 -3.099539 133.736425 -49.240835 -96.655308 2.790333 -17.091862 -19.008004 10.977351 22.289037 1.314409 75.927472 35.702339 31.092407 -160.145465 65.625400 -133.581403 -5.067719 12.490174 -28.178117 
-89.677879 44.438362 89.839638 138.266313 -2.184548 87.623464 12.997388 7.372099 -11.527816 -3.097756 17.920327 16.176330 -2.602465 2.945581 -9.847615 nan nan nan -14.846612 -7.770009 -3.861218 -2.194574 -16.279723 25.949575 -1.410732 0.749973 -27.252551 nan nan nan 1.325790 2.953017 6.061550 -3.074536 1.530144 9.947233 -0.974730 2.059522 -3.842920 0.412540 19.566110 16.666958 -5.960441 22.583942 22.710562 -19.097550 -3.910370 2.206851 -60.255789 -11.843959 -2.907914 133.707163 -49.153634 -96.432712 2.471853 -17.254082 -18.922895 11.162445 21.878422 1.227820 75.737466 35.632090 30.797104 -160.485921 65.492198 -133.684494 -5.158001 12.552972 -28.514693 
-89.687775 44.427914 89.808517 138.367678 -2.173765 87.636456 13.092419 7.231597 -11.734812 -3.116054 18.012415 16.521791 -2.506435 2.911959 -9.965876 nan nan nan -14.964287 -7.895014 -3.770940 -1.846142 -16.165127 25.764834 -1.553399 0.743440 -26.413209 nan nan nan 1.399300 2.931307 6.065758 -3.100914 1.494824 9.823187 -1.022405 2.125618 -3.806087 0.478853 19.463972 16.635440 -5.976939 22.706499 22.845097 -19.088601 -3.869145 2.303786 -60.350626 -11.937948 -2.878014 133.822937 -49.205699 -96.486059 2.154851 -17.491650 -18.990310 11.122403 21.731028 1.233139 75.824320 35.743622 30.904318 -160.690081 65.449883 -133.818424 -5.240960 12.600334 -28.531956 
